<svg preserveAspectRatio="none" width="100%" height="100%" overflow="visible" style="display: block;" viewBox="0 0 24 24" fill="none" xmlns="http://www.w3.org/2000/svg">
<g id="keep_fill">
<path id="icon" d="M20.2132 8.30872L16.0185 14.0823L16.4493 16.5776C16.4731 16.728 16.4697 16.8701 16.4392 17.0041C16.4086 17.1378 16.3494 17.265 16.2617 17.3857L15.8929 17.8933C15.7201 18.1312 15.4851 18.2741 15.1878 18.322C14.8906 18.37 14.6213 18.3062 14.3796 18.1307L10.999 15.6745L7.43492 20.5799C7.26103 20.8193 7.02713 20.9622 6.7332 21.0086C6.43927 21.055 6.17264 20.9913 5.9333 20.8174C5.69383 20.6434 5.5509 20.4096 5.5045 20.1159C5.45797 19.8221 5.52165 19.5555 5.69553 19.3162L9.25957 14.4107L5.87889 11.9545C5.63726 11.779 5.49337 11.5425 5.44722 11.245C5.40093 10.9475 5.46419 10.6798 5.637 10.442L6.00583 9.9343C6.09351 9.81362 6.19621 9.71807 6.31392 9.64764C6.43186 9.57718 6.56603 9.53003 6.71642 9.50622L9.22272 9.14487L13.4174 3.37132L13.2152 3.22438C13.069 3.03574 12.9914 2.81835 12.9823 2.57219C12.9731 2.32593 13.0408 2.10336 13.1853 1.90448C13.3593 1.66501 13.5932 1.52213 13.887 1.47583C14.1808 1.42929 14.4474 1.49297 14.6867 1.66686L21.442 6.57486C21.6813 6.74875 21.8242 6.98266 21.8707 7.27659C21.9172 7.57061 21.8536 7.83729 21.6797 8.07663C21.5351 8.27565 21.3444 8.40871 21.1075 8.47581C20.8707 8.54315 20.64 8.53643 20.4154 8.45567L20.2132 8.30872Z" fill="var(--fill-0, #005999)"/>
</g>
</svg>
