<svg width="24" height="24" viewBox="0 0 24 24" fill="none" xmlns="http://www.w3.org/2000/svg">
<path d="M10.6938 10.3405L4.31677 7.60579C3.8976 7.42762 3.6451 7.11229 3.55927 6.65979C3.47327 6.20712 3.5931 5.81796 3.91877 5.49229L4.31677 5.08479C4.48093 4.92062 4.66202 4.81737 4.86002 4.77504C5.05818 4.73271 5.25793 4.72504 5.45927 4.75204L14.69 6.37904L17.859 3.19429C18.2745 2.77896 18.763 2.57129 19.3245 2.57129C19.886 2.57129 20.3744 2.77896 20.7898 3.19429C21.2053 3.60962 21.4172 4.10229 21.4255 4.67229C21.4338 5.24212 21.2303 5.73471 20.8148 6.15004L17.6205 9.30954L19.2573 18.55C19.2841 18.7514 19.2748 18.9495 19.2293 19.1443C19.1838 19.3391 19.0789 19.5186 18.9148 19.6828L18.5073 20.0903C18.1816 20.416 17.7941 20.5343 17.3448 20.4453C16.8954 20.3561 16.5816 20.102 16.4033 19.6828L13.659 13.296L11.0745 15.8403L11.6398 19C11.6668 19.1847 11.6575 19.3568 11.612 19.5163C11.5665 19.676 11.4784 19.8212 11.3475 19.952L10.8995 20.3903C10.638 20.652 10.33 20.7568 9.97552 20.7048C9.62102 20.653 9.35977 20.4642 9.19177 20.1385L7.32452 16.65L3.83602 14.8078C3.51035 14.6398 3.3216 14.3744 3.26977 14.0115C3.21777 13.6487 3.3226 13.3365 3.58427 13.075L4.02252 12.652C4.15335 12.5212 4.30277 12.4273 4.47077 12.3703C4.6386 12.3133 4.81485 12.2982 4.99952 12.325L8.14377 12.9098L10.6938 10.3405Z" fill="currentColor"/>
</svg>
